<?xml version="1.0" standalone="no"?>
<!DOCTYPE svg PUBLIC "-//W3C//DTD SVG 20010904//EN"
 "http://www.w3.org/TR/2001/REC-SVG-20010904/DTD/svg10.dtd">
<svg version="1.0" xmlns="http://www.w3.org/2000/svg"
 width="1536.000000pt" height="1536.000000pt" viewBox="0 0 1536.000000 1536.000000"
 preserveAspectRatio="xMidYMid meet">
<metadata>
Created by potrace 1.11, written by Peter Selinger 2001-2013
</metadata>
<g transform="translate(0.000000,1536.000000) scale(0.100000,-0.100000)"
fill="#000000" stroke="none">
<path d="M0 7680 l0 -7680 7680 0 7680 0 0 7680 0 7680 -7680 0 -7680 0 0
-7680z m6132 4558 c2 -6 32 -13 68 -16 35 -3 70 -11 78 -18 7 -8 26 -14 41
-14 16 0 34 -7 41 -15 7 -8 23 -15 35 -15 13 0 25 -7 29 -15 3 -8 12 -15 20
-15 7 0 16 -7 20 -15 3 -8 14 -15 25 -15 10 0 21 -7 25 -15 3 -8 12 -15 21
-15 8 0 15 -7 15 -15 0 -8 7 -15 15 -15 8 0 15 -7 15 -15 0 -8 7 -15 15 -15 8
0 15 -7 15 -15 0 -8 7 -15 15 -15 8 0 15 -7 15 -15 0 -9 6 -18 14 -21 8 -3 17
-16 20 -30 4 -13 11 -24 16 -24 6 0 10 -6 10 -14 0 -8 7 -16 15 -20 8 -3 15
-15 15 -26 0 -11 7 -23 15 -26 8 -4 15 -17 15 -30 0 -14 7 -27 15 -30 9 -4 15
-19 15 -35 0 -17 6 -32 15 -35 10 -4 15 -20 15 -44 0 -21 7 -45 15 -54 10 -9
15 -34 15 -68 0 -32 6 -62 15 -74 12 -15 14 -66 15 -281 0 -181 -3 -262 -11
-265 -6 -2 -13 -35 -16 -73 -3 -39 -10 -73 -16 -76 -5 -4 -12 -31 -15 -60 -3
-29 -11 -59 -18 -67 -8 -7 -14 -31 -14 -52 0 -21 -5 -40 -11 -42 -5 -2 -13
-22 -16 -46 -3 -23 -9 -42 -14 -42 -4 0 -11 -17 -15 -37 -4 -21 -13 -44 -21
-51 -7 -7 -13 -25 -13 -38 0 -14 -7 -32 -15 -40 -8 -9 -15 -26 -15 -39 0 -12
-7 -25 -15 -29 -9 -3 -15 -18 -15 -35 0 -16 -6 -31 -15 -35 -8 -3 -15 -17 -15
-31 0 -14 -4 -25 -9 -25 -5 0 -13 -14 -16 -32 -4 -17 -14 -38 -21 -46 -8 -7
-14 -22 -14 -33 0 -10 -4 -19 -10 -19 -5 0 -12 -11 -16 -25 -3 -14 -10 -25
-14 -25 -5 0 -11 -13 -15 -30 -4 -16 -10 -30 -15 -30 -5 0 -11 -13 -15 -29 -3
-16 -13 -32 -21 -35 -8 -3 -14 -15 -14 -26 0 -11 -7 -23 -15 -26 -8 -4 -15
-16 -15 -29 0 -13 -7 -25 -15 -29 -8 -3 -15 -15 -15 -26 0 -11 -4 -20 -10 -20
-5 0 -12 -11 -16 -24 -3 -14 -12 -27 -20 -30 -8 -3 -14 -14 -14 -25 0 -10 -7
-21 -15 -25 -8 -3 -15 -12 -15 -21 0 -16 -12 -34 -42 -63 -10 -9 -18 -22 -18
-30 0 -12 -7 -23 -40 -60 -8 -10 -24 -35 -35 -56 -11 -21 -26 -40 -32 -43 -7
-3 -13 -11 -13 -18 0 -7 -7 -15 -15 -19 -8 -3 -15 -12 -15 -21 0 -9 -13 -29
-30 -45 -16 -16 -30 -33 -30 -39 0 -5 -7 -11 -15 -15 -8 -3 -15 -12 -15 -21 0
-9 -13 -29 -30 -45 -16 -16 -30 -33 -30 -39 0 -5 -7 -11 -15 -15 -8 -3 -15
-10 -15 -16 0 -12 -8 -23 -57 -75 -18 -20 -33 -37 -33 -40 0 -2 -15 -19 -32
-38 -61 -62 -82 -91 -70 -95 7 -2 12 -12 12 -23 0 -10 7 -19 15 -19 8 0 15 -7
15 -15 0 -9 7 -18 15 -21 8 -4 15 -15 15 -25 0 -11 7 -22 15 -25 8 -4 15 -10
15 -14 0 -5 14 -24 30 -42 17 -18 30 -38 30 -46 0 -7 7 -15 15 -18 8 -4 15
-10 15 -15 0 -5 8 -18 18 -28 31 -35 42 -50 42 -59 0 -4 13 -19 30 -32 16 -14
29 -31 30 -37 0 -7 7 -13 15 -13 8 0 15 -7 15 -15 0 -8 7 -15 15 -15 8 0 15
-7 15 -15 0 -8 7 -15 15 -15 8 0 15 -7 15 -15 0 -8 7 -15 15 -15 8 0 15 -7 15
-15 0 -8 6 -15 13 -15 6 -1 23 -14 37 -30 13 -17 28 -30 32 -30 9 0 24 -11 59
-42 10 -10 23 -18 28 -18 5 0 11 -7 15 -15 3 -8 14 -15 25 -15 10 0 21 -7 25
-15 3 -8 16 -15 30 -15 13 0 26 -7 30 -15 3 -9 18 -15 35 -15 16 0 31 -6 34
-12 3 -10 39 -13 137 -13 98 0 134 3 138 13 2 6 10 12 18 12 11 0 14 29 14
163 0 117 4 167 13 176 9 9 12 113 12 452 l0 439 223 0 c182 0 222 -2 222 -14
0 -7 7 -19 15 -26 13 -11 15 -62 15 -346 0 -290 2 -334 15 -334 8 0 15 -7 15
-15 0 -8 9 -15 20 -15 11 0 20 -3 20 -8 0 -4 24 -18 53 -32 28 -13 56 -30 60
-37 4 -7 16 -13 26 -13 11 0 21 -7 25 -15 3 -8 17 -15 31 -15 14 0 25 -4 25
-9 0 -5 21 -20 48 -33 26 -13 51 -29 55 -35 4 -7 19 -13 32 -13 16 0 25 -6 25
-15 0 -8 -4 -15 -10 -15 -5 0 -12 -11 -16 -24 -3 -14 -12 -27 -20 -30 -8 -3
-14 -14 -14 -25 0 -10 -7 -21 -15 -25 -8 -3 -15 -12 -15 -21 0 -8 -7 -15 -15
-15 -8 0 -15 -5 -15 -11 0 -6 -6 -16 -12 -23 -7 -8 -20 -24 -28 -36 -8 -13
-23 -32 -32 -42 -10 -10 -18 -22 -18 -28 0 -5 -7 -10 -15 -10 -8 0 -15 -7 -15
-15 0 -8 -7 -15 -15 -15 -8 0 -15 -7 -15 -15 0 -8 -7 -15 -15 -15 -8 0 -15 -7
-15 -15 0 -8 -7 -15 -15 -15 -8 0 -15 -7 -15 -15 0 -8 -7 -15 -15 -15 -8 0
-15 -7 -15 -15 0 -8 -7 -15 -15 -15 -8 0 -15 -7 -15 -15 0 -8 -4 -15 -10 -15
-5 0 -19 -8 -29 -17 -35 -32 -50 -43 -58 -43 -5 0 -17 -10 -28 -22 -16 -18
-21 -41 -24 -113 -2 -50 -8 -93 -14 -97 -6 -3 -13 -48 -15 -99 -3 -60 -9 -98
-18 -107 -9 -9 -14 -38 -14 -87 0 -49 -4 -75 -12 -77 -8 -3 -14 -33 -16 -83
-3 -49 -10 -84 -18 -93 -9 -8 -14 -36 -14 -77 0 -36 -5 -65 -11 -67 -6 -2 -13
-33 -16 -68 -4 -36 -12 -71 -20 -78 -7 -7 -13 -29 -13 -48 l0 -34 20 20 c11
11 20 24 20 29 0 5 7 11 15 15 8 3 15 11 15 18 0 8 14 28 30 46 17 18 30 37
30 42 0 4 7 10 15 14 8 3 15 11 15 18 0 8 14 28 30 46 17 18 30 37 30 42 0 4
7 10 15 14 8 3 15 12 15 21 0 8 4 15 10 15 5 0 12 11 16 25 3 14 12 25 20 25
8 0 14 6 14 14 0 8 7 16 15 20 8 3 15 11 15 18 0 8 14 28 30 46 17 18 30 37
30 43 0 5 4 9 10 9 5 0 12 11 16 24 3 14 12 27 20 30 8 3 14 12 14 21 0 8 6
15 13 15 6 0 20 18 31 40 10 21 25 41 32 44 8 3 14 12 14 21 0 8 5 15 10 15 6
0 14 8 17 18 7 18 17 31 46 63 9 10 17 23 17 28 0 5 7 11 15 15 8 3 15 12 15
21 0 8 4 15 10 15 5 0 12 11 16 25 3 14 12 25 20 25 8 0 14 6 14 14 0 8 7 16
15 20 8 3 15 14 15 25 0 10 7 21 15 25 8 3 15 12 15 21 0 8 6 15 13 15 6 0 21
19 32 41 10 23 25 44 32 46 7 3 13 11 13 19 0 8 5 14 10 14 6 0 14 8 17 18 7
18 17 31 46 63 9 10 17 23 17 28 0 5 7 11 15 15 8 3 15 14 15 25 0 10 7 21 15
25 8 3 15 12 15 21 0 8 6 15 13 15 6 0 21 19 32 41 10 23 25 44 32 46 7 3 13
11 13 19 0 8 5 14 10 14 6 0 14 8 17 18 7 18 17 31 46 63 9 10 17 23 17 28 0
5 7 11 15 15 8 3 15 14 15 25 0 10 7 21 15 25 8 3 15 12 15 21 0 8 7 15 15 15
8 0 15 7 15 15 0 16 8 27 43 66 9 10 17 24 17 29 0 6 4 10 9 10 10 0 34 38 47
73 3 9 11 17 18 17 6 0 19 18 30 40 10 21 25 41 32 44 8 3 14 12 14 20 0 7 7
16 15 20 8 3 15 12 15 21 0 8 4 15 10 15 5 0 12 11 16 25 3 14 12 25 20 25 8
0 14 6 14 14 0 8 7 16 15 20 8 3 15 14 15 25 0 10 7 21 15 25 8 3 15 12 15 21
0 8 7 15 15 15 8 0 15 7 15 15 0 8 4 15 9 15 5 0 13 10 16 21 4 12 20 35 36
50 16 16 29 33 29 39 0 5 7 10 15 10 8 0 15 7 15 15 0 8 7 15 15 15 9 0 18 7
21 15 4 8 14 15 24 15 10 0 23 7 30 15 7 8 22 15 34 15 11 0 34 7 50 15 31 16
146 21 146 6 0 -5 14 -12 30 -16 17 -4 30 -13 30 -20 0 -7 7 -15 15 -19 12 -4
15 -24 15 -86 0 -59 -4 -86 -15 -96 -9 -9 -15 -34 -15 -59 0 -24 -5 -45 -10
-47 -6 -2 -13 -21 -17 -43 -3 -22 -10 -43 -15 -46 -5 -3 -12 -26 -15 -50 -4
-24 -12 -50 -20 -57 -7 -7 -13 -27 -13 -43 0 -17 -7 -37 -15 -45 -8 -9 -15
-31 -15 -50 0 -20 -7 -42 -15 -50 -8 -9 -15 -33 -15 -54 0 -21 -5 -40 -11 -42
-6 -2 -13 -26 -16 -53 -3 -28 -12 -54 -19 -58 -9 -5 -14 -26 -14 -56 0 -31 -5
-53 -15 -61 -10 -8 -15 -31 -15 -65 0 -38 -4 -55 -15 -59 -11 -4 -15 -20 -15
-55 0 -27 -7 -62 -15 -77 -8 -16 -15 -47 -15 -69 0 -22 -7 -49 -15 -59 -9 -12
-15 -42 -15 -77 0 -35 -5 -59 -12 -61 -7 -3 -14 -32 -16 -74 -3 -38 -9 -72
-15 -76 -6 -4 -13 -39 -15 -79 -3 -44 -10 -78 -18 -87 -10 -9 -14 -39 -14 -92
0 -54 -4 -80 -13 -82 -8 -3 -13 -38 -15 -114 -3 -68 -8 -112 -15 -116 -8 -5
-13 -72 -15 -216 -3 -179 -1 -212 12 -225 9 -9 16 -27 16 -41 0 -14 14 -39 34
-60 29 -31 40 -36 79 -36 27 0 52 6 61 15 8 8 21 15 29 15 8 0 20 7 27 15 7 8
21 15 31 15 11 0 19 7 19 15 0 8 5 15 10 15 13 0 230 217 230 230 0 6 7 10 15
10 8 0 15 7 15 15 0 8 5 15 10 15 6 0 14 8 17 18 7 18 17 31 46 63 9 10 17 24
17 29 0 6 7 10 15 10 8 0 15 7 15 15 0 16 8 27 43 66 9 10 17 26 17 34 0 8 4
15 10 15 5 0 12 11 16 24 3 14 12 27 20 30 8 3 14 14 14 25 0 10 7 21 15 25 8
3 15 12 15 21 0 8 4 15 9 15 5 0 12 13 16 29 3 16 13 32 21 35 8 3 14 15 14
26 0 11 7 23 15 26 8 4 15 16 15 29 0 13 7 25 15 29 8 3 15 16 15 30 0 13 7
26 15 30 8 3 15 16 15 30 0 13 7 26 15 30 8 3 15 16 15 29 0 14 7 30 15 37 8
7 15 23 15 36 0 13 4 24 9 24 5 0 13 14 16 32 4 17 14 38 21 46 8 7 14 25 14
38 0 14 7 32 15 40 8 9 15 28 15 44 0 16 7 30 15 34 9 3 15 18 15 39 0 19 7
40 15 47 8 7 15 26 15 42 0 16 7 36 15 44 8 9 15 31 15 50 0 20 7 42 15 50 8
9 15 33 15 55 0 23 7 47 15 55 9 10 15 34 15 65 0 32 6 56 15 65 10 11 15 36
15 84 0 46 4 70 13 72 8 3 13 37 15 108 3 71 8 108 18 117 11 12 14 68 14 298
l0 283 72 4 c44 2 73 9 76 16 2 8 32 12 90 12 58 0 97 5 116 15 15 8 41 15 56
15 24 0 29 -5 35 -37 13 -64 17 -595 5 -607 -5 -5 -10 -43 -10 -84 0 -52 -4
-78 -15 -88 -9 -10 -15 -34 -15 -65 0 -32 -6 -56 -15 -65 -8 -9 -15 -33 -15
-55 0 -23 -7 -47 -15 -55 -8 -9 -15 -33 -15 -54 0 -24 -5 -40 -15 -44 -10 -3
-15 -19 -15 -45 0 -25 -5 -41 -15 -45 -10 -3 -15 -19 -15 -45 0 -25 -5 -41
-15 -45 -9 -3 -15 -18 -15 -35 0 -16 -6 -31 -15 -35 -9 -3 -15 -18 -15 -35 l0
-30 51 50 c28 27 57 49 65 49 8 0 14 5 14 10 0 6 7 10 15 10 7 0 18 6 22 14 4
7 28 16 53 19 24 3 46 11 48 16 5 16 45 13 78 -4 16 -8 43 -15 60 -15 19 0 34
-6 38 -15 3 -8 12 -15 21 -15 8 0 15 -7 15 -15 0 -8 7 -15 15 -15 8 0 15 -7
15 -15 0 -8 7 -15 15 -15 9 0 15 -9 15 -25 0 -14 6 -28 14 -31 8 -3 16 -31 20
-77 4 -39 11 -76 16 -81 14 -14 12 -54 -2 -58 -10 -4 -14 -53 -16 -189 -2
-134 -7 -192 -17 -216 -11 -22 -15 -70 -15 -176 0 -107 -3 -146 -12 -149 -10
-4 -14 -47 -16 -159 -2 -98 -8 -159 -15 -168 -8 -9 -13 -68 -15 -160 -3 -93
-8 -149 -15 -153 -7 -4 -13 -66 -15 -175 -3 -105 -8 -173 -16 -182 -7 -9 -12
-83 -14 -210 -2 -148 -7 -204 -18 -229 -20 -43 -17 -433 4 -454 6 -6 12 -37
12 -67 1 -67 23 -101 68 -101 22 0 40 12 76 50 25 28 46 59 46 69 0 11 7 21
15 25 8 3 15 16 15 30 0 13 7 26 15 30 8 3 15 16 15 30 0 13 7 26 15 30 9 3
15 18 15 36 0 16 4 30 10 30 5 0 13 18 16 39 4 22 13 42 20 45 8 3 14 19 14
36 0 16 4 30 10 30 5 0 12 17 16 37 4 21 13 44 21 51 7 7 13 28 13 47 0 20 6
35 15 39 9 3 15 18 15 39 0 19 7 40 15 47 8 7 15 26 15 42 0 16 7 36 15 44 8
9 15 30 15 48 0 19 7 39 15 46 8 7 15 29 15 50 0 24 5 40 15 44 9 3 15 19 15
41 0 20 7 43 15 51 8 9 15 33 15 54 0 21 5 40 10 42 6 2 13 21 17 43 3 22 10
43 16 46 5 4 12 27 14 53 3 25 12 51 19 57 8 6 14 30 14 54 0 24 5 45 11 47 5
2 13 24 16 48 4 25 12 51 20 58 7 7 13 29 13 48 0 20 7 42 15 50 8 9 15 33 15
55 0 23 7 47 15 55 8 9 15 33 15 53 0 22 6 44 15 51 9 7 15 29 15 55 0 26 6
48 15 55 9 8 15 29 15 55 0 24 5 45 11 47 6 2 13 26 17 53 3 27 11 56 19 63 7
7 13 31 13 53 0 23 7 47 15 55 9 9 15 34 15 59 0 24 5 45 11 47 6 2 14 28 17
58 2 30 9 58 14 61 6 4 13 28 16 55 2 27 11 53 18 57 9 5 14 26 14 56 0 31 5
53 15 61 9 8 15 30 15 56 l0 44 109 0 c77 0 117 -4 137 -15 16 -8 48 -15 72
-15 l43 0 -7 -67 c-4 -38 -11 -71 -17 -74 -5 -4 -12 -31 -15 -60 -3 -30 -9
-57 -15 -60 -5 -4 -12 -31 -15 -60 -3 -30 -9 -57 -14 -60 -6 -4 -13 -28 -16
-55 -3 -27 -11 -55 -19 -62 -7 -7 -13 -33 -13 -56 0 -27 -6 -48 -15 -56 -9 -8
-15 -30 -15 -57 0 -26 -6 -51 -15 -59 -8 -9 -15 -33 -15 -54 0 -24 -5 -40 -15
-44 -10 -4 -15 -20 -15 -50 0 -24 -5 -46 -11 -48 -6 -2 -13 -26 -16 -53 -3
-28 -12 -54 -19 -58 -9 -5 -14 -25 -14 -52 0 -24 -5 -45 -11 -47 -5 -2 -13
-24 -16 -48 -4 -25 -12 -51 -20 -58 -7 -7 -13 -31 -13 -52 0 -24 -5 -40 -15
-44 -9 -3 -15 -19 -15 -41 0 -20 -7 -43 -15 -51 -8 -9 -15 -33 -15 -54 0 -21
-5 -40 -11 -42 -5 -2 -13 -22 -16 -46 -3 -23 -9 -42 -14 -42 -5 0 -12 -18 -15
-39 -4 -22 -13 -42 -20 -45 -9 -3 -14 -20 -14 -45 0 -25 -5 -41 -15 -45 -9 -3
-15 -18 -15 -36 0 -17 -7 -38 -15 -46 -8 -9 -15 -28 -15 -44 0 -16 -7 -30 -15
-34 -9 -3 -15 -18 -15 -34 0 -16 -7 -35 -15 -42 -8 -7 -15 -25 -15 -40 0 -16
-7 -30 -15 -34 -8 -3 -15 -17 -15 -31 0 -15 -7 -33 -15 -41 -8 -9 -15 -26 -15
-39 0 -12 -7 -25 -15 -29 -8 -3 -15 -17 -15 -31 0 -15 -7 -33 -15 -41 -8 -9
-15 -24 -15 -35 0 -11 -7 -27 -15 -35 -8 -9 -15 -26 -15 -39 0 -12 -7 -25 -15
-29 -8 -3 -15 -16 -15 -29 0 -14 -7 -30 -15 -37 -8 -7 -15 -23 -15 -36 0 -13
-4 -24 -9 -24 -5 0 -13 -14 -16 -32 -4 -17 -14 -38 -21 -46 -8 -7 -14 -20 -14
-28 0 -9 -7 -22 -15 -30 -8 -9 -15 -24 -15 -35 0 -10 -4 -19 -10 -19 -5 0 -12
-11 -16 -24 -3 -14 -12 -27 -20 -30 -8 -3 -14 -15 -14 -26 0 -11 -7 -23 -15
-26 -8 -4 -15 -16 -15 -29 0 -13 -7 -25 -15 -29 -8 -3 -15 -12 -15 -21 0 -8
-4 -15 -10 -15 -5 0 -12 -11 -16 -24 -3 -14 -12 -27 -20 -30 -8 -3 -14 -12
-14 -20 0 -7 -7 -16 -15 -20 -8 -3 -15 -10 -15 -16 0 -12 -8 -23 -57 -75 -18
-20 -33 -40 -33 -45 0 -6 -7 -10 -15 -10 -8 0 -15 -7 -15 -15 0 -8 -4 -15 -10
-15 -6 0 -19 -8 -29 -18 -39 -34 -50 -42 -66 -42 -8 0 -15 -7 -15 -15 0 -9 -9
-15 -25 -15 -13 0 -28 -6 -32 -14 -5 -7 -34 -16 -67 -19 -32 -3 -64 -11 -69
-16 -7 -7 -14 -7 -23 0 -6 5 -36 12 -65 16 -30 3 -58 12 -62 19 -4 8 -15 14
-23 14 -18 0 -84 59 -84 76 0 7 -3 14 -7 16 -14 5 -43 69 -43 91 0 12 -7 35
-15 51 -13 24 -15 93 -15 425 0 302 3 400 12 409 9 9 14 68 17 195 2 121 7
184 15 189 7 5 12 64 14 175 3 113 8 170 15 175 8 5 13 59 15 160 3 95 8 158
16 167 7 9 12 74 15 175 2 106 7 163 15 168 7 5 12 60 14 165 1 99 7 167 15
182 7 13 12 63 12 115 l0 91 -32 3 c-24 2 -33 -1 -33 -11 0 -8 -7 -17 -15 -21
-8 -3 -15 -14 -15 -25 0 -10 -7 -21 -15 -25 -8 -3 -15 -13 -15 -21 0 -9 -7
-23 -15 -31 -8 -9 -15 -24 -15 -35 0 -10 -4 -19 -10 -19 -5 0 -13 -12 -16 -27
-4 -15 -13 -34 -21 -41 -7 -7 -13 -22 -13 -31 0 -10 -7 -24 -15 -31 -8 -7 -15
-23 -15 -35 0 -13 -7 -25 -15 -29 -8 -3 -15 -16 -15 -30 0 -13 -7 -26 -15 -30
-9 -3 -15 -18 -15 -35 0 -16 -6 -31 -15 -35 -8 -3 -15 -17 -15 -31 0 -15 -7
-33 -15 -41 -8 -9 -15 -26 -15 -39 0 -12 -7 -25 -15 -29 -9 -3 -15 -18 -15
-39 0 -19 -7 -40 -15 -47 -8 -7 -15 -23 -15 -35 0 -12 -7 -28 -15 -35 -8 -7
-15 -21 -15 -32 0 -11 -7 -26 -15 -34 -8 -9 -15 -24 -15 -35 0 -11 -7 -27 -15
-35 -8 -9 -15 -24 -15 -33 0 -10 -7 -24 -15 -31 -8 -7 -15 -23 -15 -35 0 -13
-7 -25 -15 -29 -8 -3 -15 -16 -15 -30 0 -13 -7 -26 -15 -30 -9 -3 -15 -18 -15
-35 0 -16 -6 -31 -15 -35 -8 -3 -15 -16 -15 -30 0 -13 -7 -26 -15 -30 -8 -3
-15 -16 -15 -28 0 -13 -7 -32 -15 -42 -8 -11 -15 -28 -15 -38 0 -10 -4 -18
-10 -18 -5 0 -13 -12 -16 -27 -4 -15 -13 -34 -21 -41 -7 -7 -13 -22 -13 -33 0
-10 -4 -19 -10 -19 -5 0 -13 -12 -16 -27 -4 -15 -13 -34 -21 -41 -7 -7 -13
-22 -13 -31 0 -10 -7 -24 -15 -31 -8 -7 -15 -19 -15 -27 0 -8 -7 -21 -15 -29
-8 -9 -15 -24 -15 -35 0 -10 -4 -19 -10 -19 -5 0 -12 -11 -16 -25 -3 -14 -10
-25 -14 -25 -5 0 -11 -14 -15 -30 -4 -17 -11 -30 -16 -30 -5 0 -9 -7 -9 -15 0
-8 -9 -24 -20 -35 -11 -11 -20 -29 -20 -39 0 -10 -7 -21 -15 -25 -8 -3 -15
-15 -15 -26 0 -11 -4 -20 -10 -20 -5 0 -12 -11 -16 -25 -3 -14 -10 -25 -15
-25 -5 0 -9 -7 -9 -15 0 -8 -9 -23 -20 -32 -11 -10 -20 -25 -20 -35 0 -10 -4
-18 -10 -18 -5 0 -12 -11 -16 -24 -3 -14 -12 -27 -20 -30 -8 -3 -14 -14 -14
-25 0 -10 -7 -21 -15 -25 -8 -3 -15 -12 -15 -20 0 -7 -7 -16 -15 -20 -8 -3
-15 -14 -15 -25 0 -10 -7 -21 -15 -25 -8 -3 -15 -12 -15 -20 0 -7 -7 -16 -15
-20 -8 -3 -15 -11 -15 -18 0 -8 -13 -28 -30 -46 -16 -18 -30 -37 -30 -43 0 -5
-4 -9 -10 -9 -5 0 -10 -7 -10 -15 0 -8 -9 -23 -20 -32 -11 -10 -20 -23 -20
-30 0 -7 -7 -13 -15 -13 -8 0 -15 -6 -15 -14 0 -8 -7 -16 -15 -20 -8 -3 -15
-10 -15 -16 0 -26 -180 -207 -223 -223 -9 -3 -17 -11 -17 -17 0 -5 -6 -10 -14
-10 -8 0 -16 -6 -19 -12 -3 -7 -22 -22 -43 -33 -22 -10 -47 -26 -56 -35 -37
-33 -48 -40 -63 -40 -9 0 -18 -7 -21 -15 -4 -8 -15 -15 -25 -15 -11 0 -22 -7
-25 -15 -4 -8 -17 -15 -30 -15 -14 0 -27 -7 -30 -15 -4 -8 -14 -15 -24 -15
-10 0 -25 -7 -34 -15 -8 -8 -24 -15 -36 -15 -11 0 -23 -7 -26 -15 -8 -20 -54
-20 -54 0 0 9 -7 18 -15 21 -9 4 -15 19 -15 39 0 18 -6 38 -14 44 -7 6 -16 29
-20 51 -3 22 -11 40 -16 40 -6 0 -10 13 -10 29 0 17 -4 33 -10 36 -5 3 -10 28
-10 56 0 42 3 49 19 49 21 0 164 69 169 82 2 4 12 8 22 8 11 0 23 6 27 13 4 8
23 22 42 33 19 10 48 31 65 47 17 15 36 27 44 27 7 0 15 7 18 15 4 8 12 15 20
15 8 0 14 7 14 15 0 8 5 15 11 15 14 0 259 245 259 259 0 6 7 11 15 11 8 0 15
6 15 14 0 8 7 16 15 20 8 3 15 10 15 16 0 12 15 32 43 58 9 9 17 22 17 29 0 7
5 13 10 13 6 0 14 8 17 18 7 18 17 31 46 63 9 10 17 24 17 29 0 6 4 10 9 10 5
0 14 13 20 30 5 16 15 30 20 30 6 0 11 7 11 15 0 8 5 15 10 15 6 0 10 7 10 15
0 8 9 24 20 35 11 11 20 27 20 35 0 8 4 15 10 15 5 0 12 11 16 24 3 14 12 27
20 30 8 3 14 14 14 25 0 10 7 21 15 25 8 3 15 15 15 26 0 11 4 20 10 20 5 0
12 11 16 25 3 14 10 25 14 25 4 0 13 14 19 30 5 17 15 30 20 30 6 0 11 11 11
24 0 13 7 26 15 30 8 3 15 16 15 30 0 13 7 26 15 30 8 3 15 13 15 21 0 9 7 23
15 31 8 9 15 24 15 35 0 10 4 19 10 19 5 0 12 11 16 25 3 14 10 25 14 25 5 0
12 14 15 32 4 17 14 38 21 46 8 7 14 20 14 28 0 8 4 14 9 14 5 0 13 14 16 32
4 17 14 38 21 46 8 7 14 20 14 28 0 9 7 22 15 30 8 9 15 24 15 33 0 10 7 24
15 31 8 7 15 23 15 35 0 13 7 25 15 29 8 3 15 16 15 30 0 13 7 26 15 30 9 3
15 18 15 35 0 16 6 31 15 35 8 3 15 17 15 31 0 14 5 25 10 25 6 0 10 6 10 13
0 6 6 24 14 39 12 23 12 26 0 21 -8 -3 -14 -11 -14 -18 0 -7 -7 -15 -15 -19
-8 -3 -15 -12 -15 -21 0 -9 -13 -29 -30 -45 -16 -16 -30 -34 -30 -40 0 -5 -4
-10 -9 -10 -5 0 -13 -10 -16 -21 -4 -12 -20 -35 -36 -50 -16 -16 -29 -32 -29
-36 -1 -4 -14 -19 -30 -33 -17 -13 -30 -29 -30 -35 0 -7 -20 -33 -45 -59 -25
-27 -45 -52 -45 -57 0 -5 -7 -9 -15 -9 -8 0 -15 -7 -15 -15 0 -8 -7 -15 -15
-15 -8 0 -15 -7 -15 -15 0 -8 -7 -15 -15 -15 -8 0 -15 -7 -15 -15 0 -8 -7 -15
-15 -15 -8 0 -15 -7 -15 -15 0 -8 -7 -15 -15 -15 -8 0 -15 -7 -15 -15 0 -8 -7
-15 -15 -15 -8 0 -15 -7 -15 -15 0 -8 -7 -15 -15 -15 -8 0 -15 -7 -15 -15 0
-8 -5 -15 -10 -15 -6 0 -23 -12 -38 -28 -15 -15 -44 -38 -64 -51 -21 -12 -38
-27 -38 -32 0 -5 -7 -9 -15 -9 -9 0 -18 -7 -21 -15 -4 -8 -17 -15 -30 -15 -15
0 -24 -6 -24 -15 0 -9 -9 -15 -25 -15 -14 0 -28 -7 -31 -15 -4 -8 -19 -15 -35
-15 -16 0 -32 -7 -37 -16 -14 -25 -293 -24 -317 0 -9 9 -25 16 -36 16 -10 0
-19 5 -19 10 0 6 -7 10 -15 10 -8 0 -24 9 -35 20 -11 11 -24 20 -30 20 -5 0
-10 7 -10 15 0 8 -6 15 -14 15 -8 0 -17 11 -20 25 -4 14 -11 25 -16 25 -6 0
-10 9 -10 19 0 10 -7 21 -15 25 -8 3 -15 17 -15 31 0 14 -7 28 -15 31 -9 4
-15 19 -15 39 0 19 -6 40 -13 47 -8 7 -17 47 -20 88 -3 41 -11 76 -17 78 -6 2
-10 77 -10 214 0 173 3 212 15 224 11 12 15 39 15 110 0 72 4 99 15 110 11 11
15 37 15 94 0 60 3 79 15 84 11 4 15 23 15 80 0 49 4 76 12 78 7 3 14 32 16
74 3 38 9 72 15 76 6 3 12 32 14 65 3 32 11 72 19 90 8 17 14 52 14 78 0 28 6
52 15 61 9 10 15 34 15 63 0 26 4 51 9 56 5 6 12 21 16 35 11 36 -78 -83 -91
-122 -4 -10 -13 -18 -20 -18 -8 0 -14 -7 -14 -15 0 -8 -4 -15 -10 -15 -5 0
-12 -11 -16 -24 -3 -14 -12 -27 -20 -30 -8 -3 -14 -12 -14 -21 0 -8 -5 -15
-10 -15 -6 0 -14 -8 -17 -17 -7 -19 -17 -32 -45 -64 -10 -10 -18 -23 -18 -28
0 -5 -7 -11 -15 -15 -8 -3 -15 -12 -15 -21 0 -9 -12 -28 -27 -43 -16 -15 -37
-43 -47 -62 -11 -19 -25 -39 -33 -43 -7 -4 -13 -15 -13 -22 0 -8 -7 -15 -15
-15 -8 0 -15 -7 -15 -15 0 -16 -8 -27 -42 -66 -10 -10 -18 -23 -18 -29 0 -5
-5 -10 -10 -10 -6 0 -14 -8 -17 -17 -7 -19 -17 -32 -45 -64 -10 -10 -18 -23
-18 -29 0 -5 -5 -10 -10 -10 -6 0 -14 -8 -17 -17 -7 -19 -17 -32 -45 -64 -10
-10 -18 -23 -18 -29 0 -5 -5 -10 -10 -10 -6 0 -14 -8 -17 -17 -7 -19 -17 -32
-45 -64 -10 -10 -18 -23 -18 -29 0 -5 -5 -10 -10 -10 -6 0 -14 -8 -17 -17 -8
-21 -21 -37 -45 -61 -10 -9 -18 -22 -18 -29 0 -7 -7 -13 -15 -13 -8 0 -15 -7
-15 -15 0 -8 -5 -15 -10 -15 -6 0 -14 -8 -17 -17 -7 -19 -17 -32 -45 -64 -10
-10 -18 -23 -18 -29 0 -5 -5 -10 -10 -10 -6 0 -14 -8 -17 -17 -8 -20 -15 -30
-60 -78 -18 -20 -33 -40 -33 -45 0 -6 -5 -10 -10 -10 -6 0 -14 -8 -17 -17 -8
-20 -15 -30 -60 -78 -18 -20 -33 -38 -33 -41 0 -3 -10 -15 -23 -27 -12 -12
-35 -41 -51 -64 -16 -24 -33 -43 -37 -43 -5 0 -9 -7 -9 -15 0 -8 -4 -15 -10
-15 -10 0 -50 -36 -50 -45 0 -3 -20 -25 -45 -48 -25 -24 -45 -47 -45 -51 0
-11 -87 -96 -97 -96 -5 0 -20 -13 -33 -30 -14 -16 -30 -29 -36 -30 -7 0 -14
-7 -18 -15 -4 -12 -24 -15 -91 -15 -49 0 -85 4 -85 10 0 5 -11 12 -24 16 -14
3 -27 12 -30 20 -3 8 -12 14 -19 14 -15 0 -60 46 -70 73 -3 9 -11 17 -16 17
-5 0 -12 13 -16 30 -4 16 -11 30 -16 30 -5 0 -9 40 -9 89 0 66 4 92 15 101 9
8 15 29 15 55 0 24 5 45 10 47 6 2 13 21 17 43 3 22 12 46 20 53 7 7 13 28 13
45 0 18 7 41 15 51 8 11 15 36 15 57 0 24 5 39 15 43 10 4 15 20 15 51 0 28 6
52 15 61 9 9 15 34 15 59 0 24 5 45 11 47 6 2 14 28 17 58 2 30 9 58 15 62 6
3 13 35 15 70 3 39 10 66 18 71 10 5 14 28 14 73 0 45 5 70 15 80 10 11 15 37
15 87 1 47 6 79 15 91 8 11 15 39 15 63 l0 43 -134 0 c-95 0 -135 3 -138 12
-3 7 -32 14 -74 16 -38 3 -72 9 -75 14 -3 5 -25 12 -48 15 -22 3 -41 9 -41 14
0 4 -13 10 -30 14 -16 4 -30 10 -30 15 0 5 -13 11 -29 15 -16 3 -32 13 -35 21
-3 8 -15 14 -26 14 -11 0 -23 7 -26 15 -4 8 -12 15 -19 15 -7 0 -15 7 -19 15
-3 8 -12 15 -19 15 -8 0 -35 20 -61 45 -27 25 -52 45 -57 45 -5 0 -9 4 -9 9 0
5 -29 40 -65 78 -98 102 -110 116 -118 136 -3 9 -11 17 -17 17 -5 0 -10 7 -10
15 0 8 -7 15 -15 15 -8 0 -15 4 -15 9 0 6 -13 25 -30 43 -16 18 -30 38 -30 46
0 7 -7 15 -15 18 -8 4 -15 12 -15 20 0 8 -7 14 -15 14 -8 0 -15 5 -15 10 0 6
-8 19 -17 29 -29 32 -39 45 -46 64 -3 9 -11 17 -17 17 -5 0 -10 5 -10 10 0 6
-8 19 -17 29 -33 37 -43 50 -43 61 0 17 -8 12 -55 -32 -58 -56 -72 -68 -83
-68 -4 0 -19 -13 -32 -30 -14 -16 -31 -29 -37 -30 -7 0 -13 -7 -13 -15 0 -8
-6 -15 -13 -15 -7 0 -20 -8 -29 -17 -26 -28 -46 -43 -58 -43 -6 0 -13 -7 -16
-15 -4 -8 -10 -15 -15 -15 -5 0 -18 -8 -28 -17 -37 -34 -50 -43 -61 -43 -6 0
-13 -7 -16 -15 -4 -8 -13 -15 -20 -15 -8 0 -17 -7 -20 -15 -4 -8 -15 -15 -25
-15 -11 0 -22 -7 -25 -15 -4 -8 -12 -15 -19 -15 -7 0 -18 -7 -25 -15 -7 -8
-20 -15 -30 -15 -10 0 -20 -7 -24 -15 -3 -8 -14 -15 -25 -15 -11 0 -24 -6 -28
-13 -9 -13 -94 -57 -112 -57 -6 0 -11 -4 -11 -9 0 -5 -13 -12 -30 -16 -16 -4
-30 -11 -30 -16 0 -5 -11 -9 -24 -9 -14 0 -31 -7 -40 -15 -8 -8 -29 -15 -46
-15 -18 0 -33 -6 -36 -15 -4 -10 -20 -15 -44 -15 -21 0 -43 -7 -50 -15 -8 -10
-31 -15 -66 -15 -33 0 -58 -5 -68 -15 -22 -22 -398 -22 -416 0 -8 9 -29 15
-55 15 -29 0 -45 5 -49 15 -3 9 -18 15 -40 15 -21 0 -36 6 -40 15 -3 8 -16 15
-30 15 -13 0 -26 7 -30 15 -3 8 -12 15 -20 15 -7 0 -16 7 -20 15 -3 8 -14 15
-25 15 -10 0 -21 7 -25 15 -3 8 -12 15 -21 15 -8 0 -15 7 -15 15 0 8 -7 15
-15 15 -8 0 -15 7 -15 15 0 8 -7 15 -15 15 -8 0 -15 7 -15 15 0 8 -7 15 -15
15 -8 0 -15 5 -15 10 0 6 -8 19 -17 29 -33 37 -43 50 -43 61 0 5 -8 19 -17 29
-33 37 -40 47 -47 74 -3 15 -11 27 -16 27 -6 0 -10 13 -10 29 0 16 -7 34 -15
41 -8 7 -15 27 -15 45 0 18 -7 38 -15 45 -10 8 -15 31 -15 66 0 33 -5 58 -15
68 -13 12 -15 55 -15 259 0 174 3 246 11 249 7 2 14 37 17 83 3 47 10 85 18
93 8 8 14 34 14 61 0 31 5 53 15 61 9 8 15 29 15 55 0 24 5 45 10 47 6 2 13
21 17 43 3 22 12 46 20 53 7 7 13 26 13 41 0 16 7 34 15 41 8 7 15 27 15 45 0
20 6 35 15 39 9 3 15 18 15 36 0 16 4 30 9 30 5 0 13 14 16 32 4 17 14 38 21
46 8 7 14 24 14 37 0 12 7 25 15 29 8 3 15 16 15 29 0 14 7 30 15 37 8 7 15
23 15 36 0 13 4 24 9 24 5 0 12 13 16 29 3 16 13 32 21 35 8 3 14 16 14 30 0
13 7 26 15 30 8 3 15 16 15 30 0 13 7 26 15 30 8 3 15 15 15 26 0 11 7 23 15
26 8 4 15 16 15 29 0 13 7 25 15 29 8 3 15 17 15 31 0 14 4 25 9 25 5 0 20 21
33 48 13 26 29 51 35 55 7 4 13 16 13 26 0 11 7 21 15 25 8 3 15 12 15 20 0 7
7 16 15 20 8 3 15 15 15 26 0 11 7 23 15 26 8 4 15 13 15 20 0 15 8 27 43 65
9 10 17 24 17 29 0 11 10 24 43 61 9 10 17 24 17 29 0 6 4 10 10 10 5 0 12 11
16 24 3 14 12 27 20 30 8 3 14 12 14 21 0 8 7 15 15 15 8 0 15 7 15 15 0 16
12 34 43 63 9 9 17 22 17 29 0 7 7 13 15 13 8 0 15 7 15 15 0 8 5 15 10 15 6
0 14 8 17 18 8 20 21 36 46 60 9 9 17 22 17 29 0 7 7 13 15 13 8 0 15 5 15 10
0 6 20 30 45 53 25 24 45 47 45 52 0 11 263 275 274 275 5 0 29 20 53 45 23
25 45 45 47 45 2 0 25 20 52 45 26 25 52 45 59 45 6 0 22 13 35 30 14 16 28
29 33 30 4 0 16 8 26 18 39 34 50 42 66 42 8 0 15 7 15 15 0 8 7 15 15 15 9 0
18 7 21 15 4 8 15 15 25 15 11 0 22 7 25 15 4 8 13 15 20 15 8 0 17 7 20 15 4
8 15 15 25 15 11 0 22 7 25 15 4 8 13 15 20 15 8 0 17 7 20 15 4 8 17 15 30
15 14 0 27 7 30 15 4 8 14 15 25 15 10 0 22 6 26 13 9 13 94 57 112 57 6 0 11
5 11 10 0 6 11 10 25 10 14 0 28 7 31 15 4 9 19 15 35 15 16 0 32 6 35 14 3 7
23 16 45 20 21 3 39 10 39 15 0 5 19 11 41 14 23 3 45 10 48 15 3 5 31 12 61
14 30 3 56 11 58 17 2 7 31 11 75 11 42 0 82 6 97 14 32 18 236 22 242 4z"/>
<path d="M5485 11683 c-11 -3 -24 -9 -29 -14 -6 -5 -36 -9 -67 -9 -38 0 -63
-5 -73 -15 -8 -8 -31 -15 -51 -15 -22 0 -38 -6 -41 -15 -4 -8 -17 -15 -30 -15
-14 0 -27 -7 -30 -15 -4 -8 -15 -15 -25 -15 -10 0 -28 -8 -38 -17 -37 -34 -50
-43 -61 -43 -6 0 -13 -7 -16 -15 -4 -8 -10 -15 -15 -15 -5 0 -17 -8 -28 -17
-10 -10 -34 -29 -52 -43 -19 -14 -49 -40 -67 -57 -18 -18 -37 -33 -42 -33 -6
0 -10 -7 -10 -15 0 -8 -7 -15 -15 -15 -8 0 -15 -5 -15 -10 0 -6 -19 -29 -43
-53 -24 -23 -58 -62 -77 -87 -18 -25 -46 -57 -62 -72 -15 -15 -28 -32 -28 -37
0 -6 -4 -11 -9 -11 -5 0 -13 -10 -16 -21 -4 -12 -20 -35 -36 -50 -16 -16 -29
-33 -29 -39 0 -5 -4 -10 -9 -10 -5 0 -14 -13 -20 -30 -5 -16 -15 -30 -20 -30
-6 0 -11 -7 -11 -15 0 -8 -4 -15 -10 -15 -5 0 -10 -7 -10 -15 0 -8 -9 -24 -20
-35 -11 -11 -20 -27 -20 -35 0 -8 -4 -15 -10 -15 -5 0 -12 -11 -16 -24 -3 -14
-12 -27 -20 -30 -8 -3 -14 -14 -14 -25 0 -10 -7 -21 -15 -25 -8 -3 -15 -15
-15 -26 0 -11 -4 -20 -10 -20 -5 0 -12 -11 -16 -25 -3 -14 -10 -25 -14 -25 -5
0 -11 -13 -15 -29 -3 -16 -13 -32 -21 -35 -8 -3 -14 -16 -14 -30 0 -13 -7 -26
-15 -30 -8 -3 -15 -15 -15 -26 0 -12 -7 -28 -15 -36 -8 -9 -15 -24 -15 -34 0
-10 -7 -20 -15 -24 -8 -3 -15 -15 -15 -26 0 -12 -7 -28 -15 -36 -8 -9 -15 -24
-15 -35 0 -11 -7 -27 -15 -35 -8 -9 -15 -26 -15 -39 0 -12 -7 -25 -15 -29 -9
-3 -15 -18 -15 -36 0 -16 -4 -30 -10 -30 -5 0 -13 -18 -16 -39 -4 -22 -13 -42
-20 -45 -8 -3 -14 -20 -14 -39 0 -19 -7 -40 -15 -47 -8 -7 -15 -28 -15 -47 0
-19 -7 -41 -15 -49 -8 -9 -15 -33 -15 -54 0 -21 -5 -40 -11 -42 -6 -2 -14 -28
-17 -58 -2 -30 -10 -58 -15 -62 -6 -4 -13 -37 -15 -75 -3 -37 -11 -77 -19 -89
-19 -30 -15 -615 5 -622 7 -2 12 -21 12 -48 0 -30 5 -46 15 -50 8 -4 15 -15
15 -25 0 -20 40 -102 52 -107 4 -2 8 -12 8 -22 0 -18 23 -34 34 -23 3 4 6 22
6 40 0 19 7 41 15 49 8 9 15 28 15 43 0 16 7 34 15 41 8 7 15 23 15 35 0 12 7
28 15 35 8 7 15 23 15 36 0 13 4 24 9 24 5 0 12 14 16 30 4 17 10 30 15 30 5
0 11 13 15 29 3 16 13 32 21 35 8 3 14 15 14 26 0 11 7 23 15 26 8 4 15 13 15
20 0 15 8 27 43 65 9 10 17 22 17 27 1 4 14 18 30 32 17 13 30 28 30 33 0 11
86 97 97 97 5 0 20 13 33 30 14 16 31 29 38 30 7 0 15 7 18 15 4 8 15 15 25
15 11 0 22 6 25 14 3 8 19 18 35 21 16 4 29 11 29 16 0 5 13 9 29 9 16 0 34 6
40 14 6 7 40 16 78 19 37 3 69 10 71 16 5 14 149 15 154 1 2 -6 28 -13 58 -17
30 -3 59 -12 63 -19 4 -8 19 -14 31 -14 13 0 26 -7 30 -15 3 -8 11 -15 18 -15
7 -1 24 -14 38 -30 13 -17 29 -30 35 -30 5 0 28 -21 50 -47 22 -25 48 -54 58
-64 9 -11 17 -21 17 -24 0 -2 15 -20 33 -39 46 -49 57 -64 57 -76 0 -17 22 -7
34 16 6 10 17 23 24 27 6 4 12 16 12 26 0 11 7 21 15 25 8 3 15 12 15 20 0 7
7 16 15 20 8 3 15 14 15 25 0 10 7 21 15 25 8 3 15 12 15 21 0 8 4 15 9 15 5
0 14 14 20 30 5 17 15 30 20 30 6 0 11 8 11 19 0 10 7 24 15 31 8 7 15 19 15
26 0 8 4 14 9 14 5 0 14 14 20 30 5 17 15 30 20 30 6 0 11 13 11 29 0 16 6 31
15 35 8 3 15 14 15 25 0 10 7 21 15 25 8 3 15 16 15 30 0 13 7 26 15 30 8 3
15 16 15 30 0 13 7 26 15 30 8 3 15 17 15 31 0 15 7 33 15 41 8 9 15 24 15 35
0 11 7 27 15 35 8 9 15 26 15 39 0 12 7 25 15 29 9 3 15 18 15 36 0 16 4 30
10 30 5 0 13 18 16 39 4 22 13 42 20 45 9 3 14 20 14 45 0 25 5 41 15 45 10 4
15 20 15 50 0 24 5 46 11 48 6 2 13 25 16 51 3 26 12 52 19 58 9 7 14 32 14
69 0 38 4 60 13 62 8 3 13 36 15 104 2 55 9 105 15 113 16 19 16 239 1 249 -7
4 -13 45 -15 101 -3 64 -8 96 -16 99 -8 2 -13 21 -13 48 0 29 -5 47 -14 50 -7
3 -16 23 -20 45 -3 21 -11 39 -16 39 -6 0 -10 11 -10 25 0 14 -6 28 -14 31 -8
3 -17 16 -20 30 -4 13 -11 24 -16 24 -6 0 -10 7 -10 15 0 9 -7 18 -15 21 -8 4
-15 10 -15 15 0 12 -68 79 -80 79 -6 0 -10 7 -10 15 0 8 -9 15 -20 15 -11 0
-20 4 -20 10 0 5 -12 13 -27 16 -15 4 -34 13 -41 21 -7 7 -32 13 -55 13 -23 0
-51 7 -61 15 -19 15 -114 19 -161 8z"/>
<path d="M4543 8806 c-35 -35 -63 -69 -63 -75 0 -6 -7 -11 -15 -11 -8 0 -15
-7 -15 -15 0 -16 -8 -27 -42 -66 -10 -10 -18 -28 -18 -38 0 -10 -7 -21 -15
-25 -8 -3 -15 -13 -15 -21 0 -9 -7 -23 -15 -31 -8 -9 -15 -26 -15 -39 0 -12
-7 -25 -15 -29 -8 -3 -15 -16 -15 -30 0 -13 -7 -26 -15 -30 -9 -3 -15 -18 -15
-36 0 -17 -7 -38 -15 -46 -8 -9 -15 -28 -15 -44 0 -25 5 -30 34 -36 58 -10
239 -1 244 14 2 7 20 12 42 12 21 0 45 7 54 15 8 8 24 15 35 15 11 0 26 7 35
15 8 8 22 15 31 15 8 0 18 7 21 15 4 8 15 15 25 15 10 0 28 8 38 18 32 28 45
38 64 45 9 3 17 11 17 17 0 5 4 10 9 10 19 0 231 204 231 222 0 5 -7 11 -15
14 -8 4 -15 11 -15 16 0 12 -42 58 -53 58 -9 0 -31 17 -55 43 -9 9 -22 17 -28
17 -7 0 -14 7 -18 15 -3 8 -16 15 -30 15 -13 0 -26 6 -28 13 -3 9 -42 13 -139
15 l-134 2 -62 -64z"/>
</g>
</svg>
